<mxfile host="app.diagrams.net" agent="Mozilla/5.0 (Windows NT 10.0; Win64; x64) AppleWebKit/537.36 (KHTML, like Gecko) Chrome/139.0.0.0 Safari/537.36" version="28.1.0">
  <diagram name="Page-1" id="x8vyGrcBHPhoQpYQnfkJ">
    <mxGraphModel dx="1303" dy="703" grid="1" gridSize="10" guides="1" tooltips="1" connect="1" arrows="1" fold="1" page="1" pageScale="1" pageWidth="1169" pageHeight="1654" math="0" shadow="0">
      <root>
        <mxCell id="0" />
        <mxCell id="1" parent="0" />
        <mxCell id="pgzEsScPh1fTldkZnOe3-56" style="edgeStyle=orthogonalEdgeStyle;rounded=0;orthogonalLoop=1;jettySize=auto;html=1;exitX=0.5;exitY=1;exitDx=0;exitDy=0;" edge="1" parent="1">
          <mxGeometry relative="1" as="geometry">
            <mxPoint x="270" y="110.5" as="targetPoint" />
            <mxPoint x="237.99999999999955" y="110.00000000000011" as="sourcePoint" />
          </mxGeometry>
        </mxCell>
        <mxCell id="pgzEsScPh1fTldkZnOe3-2" value="&lt;font face=&quot;Times New Roman&quot; style=&quot;font-size: 18px;&quot;&gt;&lt;b style=&quot;&quot;&gt;Conv 3x3&lt;/b&gt;&lt;/font&gt;&lt;div&gt;&lt;font face=&quot;Times New Roman&quot; style=&quot;font-size: 18px;&quot;&gt;&lt;b style=&quot;&quot;&gt;Stride =2&lt;/b&gt;&lt;/font&gt;&lt;/div&gt;" style="rounded=0;whiteSpace=wrap;html=1;rotation=-90;fillColor=#dae8fc;strokeColor=#6c8ebf;" vertex="1" parent="1">
          <mxGeometry x="132" y="100" width="164" height="48" as="geometry" />
        </mxCell>
        <mxCell id="pgzEsScPh1fTldkZnOe3-4" value="&lt;font style=&quot;font-size: 15px;&quot; face=&quot;Helvetica&quot;&gt;&lt;b style=&quot;&quot;&gt;BatchNorm&lt;/b&gt;&lt;/font&gt;" style="rounded=0;whiteSpace=wrap;html=1;rotation=-90;fillColor=#dae8fc;strokeColor=#6c8ebf;" vertex="1" parent="1">
          <mxGeometry x="215" y="101" width="160" height="42" as="geometry" />
        </mxCell>
        <mxCell id="pgzEsScPh1fTldkZnOe3-52" style="edgeStyle=orthogonalEdgeStyle;rounded=0;orthogonalLoop=1;jettySize=auto;html=1;exitX=0.5;exitY=1;exitDx=0;exitDy=0;" edge="1" parent="1" source="pgzEsScPh1fTldkZnOe3-6">
          <mxGeometry relative="1" as="geometry">
            <mxPoint x="420" y="107" as="targetPoint" />
          </mxGeometry>
        </mxCell>
        <mxCell id="pgzEsScPh1fTldkZnOe3-6" value="&lt;b&gt;&lt;font face=&quot;Times New Roman&quot; style=&quot;font-size: 18px;&quot;&gt;SiLU&lt;/font&gt;&lt;/b&gt;" style="rounded=0;whiteSpace=wrap;html=1;rotation=-90;fillColor=#dae8fc;strokeColor=#6c8ebf;" vertex="1" parent="1">
          <mxGeometry x="310" y="82" width="110" height="50" as="geometry" />
        </mxCell>
        <mxCell id="pgzEsScPh1fTldkZnOe3-7" value="&lt;b&gt;&lt;font style=&quot;font-size: 13px;&quot;&gt;Input Image&lt;/font&gt;&lt;/b&gt;&lt;div style=&quot;text-align: start;&quot;&gt;&lt;b&gt;&lt;font style=&quot;font-size: 13px;&quot;&gt;3 x 224 x 224&lt;/font&gt;&lt;/b&gt;&lt;/div&gt;" style="ellipse;shape=cloud;whiteSpace=wrap;html=1;fillColor=#f5f5f5;gradientColor=#b3b3b3;strokeColor=#666666;" vertex="1" parent="1">
          <mxGeometry x="25" y="60" width="150" height="110" as="geometry" />
        </mxCell>
        <mxCell id="pgzEsScPh1fTldkZnOe3-8" style="edgeStyle=orthogonalEdgeStyle;rounded=0;orthogonalLoop=1;jettySize=auto;html=1;exitX=0.5;exitY=1;exitDx=0;exitDy=0;entryX=0.5;entryY=0;entryDx=0;entryDy=0;" edge="1" parent="1" source="pgzEsScPh1fTldkZnOe3-9" target="pgzEsScPh1fTldkZnOe3-11">
          <mxGeometry relative="1" as="geometry" />
        </mxCell>
        <mxCell id="pgzEsScPh1fTldkZnOe3-9" value="&lt;p&gt;&lt;b&gt;&lt;font face=&quot;Helvetica&quot;&gt;DSBlock:c0&amp;nbsp;&lt;/font&gt;&lt;/b&gt;&lt;span style=&quot;background-color: transparent; color: light-dark(rgb(0, 0, 0), rgb(255, 255, 255));&quot;&gt;→&amp;nbsp;&lt;/span&gt;&lt;b style=&quot;background-color: transparent; color: light-dark(rgb(0, 0, 0), rgb(255, 255, 255));&quot;&gt;&lt;font face=&quot;Helvetica&quot;&gt;c1, Stride=1&lt;/font&gt;&lt;/b&gt;&lt;/p&gt;&lt;p&gt;&lt;b&gt;&lt;font face=&quot;Helvetica&quot;&gt;(residual)&lt;/font&gt;&lt;/b&gt;&lt;/p&gt;" style="rounded=1;whiteSpace=wrap;html=1;rotation=0;fillColor=#d5e8d4;strokeColor=#82b366;gradientColor=#97d077;" vertex="1" parent="1">
          <mxGeometry x="425" y="88" width="190" height="46" as="geometry" />
        </mxCell>
        <mxCell id="pgzEsScPh1fTldkZnOe3-10" style="edgeStyle=orthogonalEdgeStyle;rounded=0;orthogonalLoop=1;jettySize=auto;html=1;exitX=0.5;exitY=1;exitDx=0;exitDy=0;entryX=0.5;entryY=0;entryDx=0;entryDy=0;" edge="1" parent="1" source="pgzEsScPh1fTldkZnOe3-11" target="pgzEsScPh1fTldkZnOe3-13">
          <mxGeometry relative="1" as="geometry" />
        </mxCell>
        <mxCell id="pgzEsScPh1fTldkZnOe3-11" value="&lt;p&gt;&lt;b&gt;DSBlock:c0&amp;nbsp;&lt;/b&gt;&lt;span style=&quot;color: light-dark(rgb(0, 0, 0), rgb(255, 255, 255)); background-color: transparent;&quot;&gt;→&amp;nbsp;&lt;/span&gt;&lt;b style=&quot;color: light-dark(rgb(0, 0, 0), rgb(255, 255, 255)); background-color: transparent;&quot;&gt;c2, Stride=2&lt;/b&gt;&lt;/p&gt;" style="rounded=1;whiteSpace=wrap;html=1;rotation=0;fillColor=#d5e8d4;strokeColor=#82b366;gradientColor=#97d077;" vertex="1" parent="1">
          <mxGeometry x="425" y="155" width="185" height="35" as="geometry" />
        </mxCell>
        <mxCell id="pgzEsScPh1fTldkZnOe3-12" style="edgeStyle=orthogonalEdgeStyle;rounded=0;orthogonalLoop=1;jettySize=auto;html=1;exitX=0.5;exitY=1;exitDx=0;exitDy=0;entryX=0.5;entryY=0;entryDx=0;entryDy=0;" edge="1" parent="1" source="pgzEsScPh1fTldkZnOe3-13" target="pgzEsScPh1fTldkZnOe3-16">
          <mxGeometry relative="1" as="geometry" />
        </mxCell>
        <mxCell id="pgzEsScPh1fTldkZnOe3-13" value="&lt;p&gt;&lt;b&gt;DSBlock:c1&amp;nbsp;&lt;/b&gt;&lt;span style=&quot;background-color: transparent; color: light-dark(rgb(0, 0, 0), rgb(255, 255, 255));&quot;&gt;→&amp;nbsp;&lt;/span&gt;&lt;b style=&quot;background-color: transparent; color: light-dark(rgb(0, 0, 0), rgb(255, 255, 255));&quot;&gt;c1, Stride=1&lt;/b&gt;&lt;/p&gt;&lt;p&gt;&lt;b&gt;(residual)&lt;/b&gt;&lt;/p&gt;" style="rounded=1;whiteSpace=wrap;html=1;rotation=0;fillColor=#d5e8d4;strokeColor=#82b366;gradientColor=#97d077;" vertex="1" parent="1">
          <mxGeometry x="425" y="210" width="190" height="46" as="geometry" />
        </mxCell>
        <mxCell id="pgzEsScPh1fTldkZnOe3-14" style="edgeStyle=orthogonalEdgeStyle;rounded=0;orthogonalLoop=1;jettySize=auto;html=1;exitX=0.5;exitY=1;exitDx=0;exitDy=0;" edge="1" parent="1" source="pgzEsScPh1fTldkZnOe3-16">
          <mxGeometry relative="1" as="geometry">
            <mxPoint x="518" y="305" as="targetPoint" />
          </mxGeometry>
        </mxCell>
        <mxCell id="pgzEsScPh1fTldkZnOe3-15" style="edgeStyle=orthogonalEdgeStyle;rounded=0;orthogonalLoop=1;jettySize=auto;html=1;exitX=0.5;exitY=1;exitDx=0;exitDy=0;entryX=0.5;entryY=0;entryDx=0;entryDy=0;" edge="1" parent="1" source="pgzEsScPh1fTldkZnOe3-16" target="pgzEsScPh1fTldkZnOe3-18">
          <mxGeometry relative="1" as="geometry" />
        </mxCell>
        <mxCell id="pgzEsScPh1fTldkZnOe3-16" value="&lt;p&gt;&lt;b&gt;DSBlock:c1&amp;nbsp;&lt;/b&gt;&lt;span style=&quot;background-color: transparent; color: light-dark(rgb(0, 0, 0), rgb(255, 255, 255));&quot;&gt;→&amp;nbsp;&lt;/span&gt;&lt;b style=&quot;background-color: transparent; color: light-dark(rgb(0, 0, 0), rgb(255, 255, 255));&quot;&gt;c2, Stride=2&lt;/b&gt;&lt;/p&gt;" style="rounded=1;whiteSpace=wrap;html=1;rotation=0;fillColor=#d5e8d4;strokeColor=#82b366;gradientColor=#97d077;" vertex="1" parent="1">
          <mxGeometry x="425" y="270" width="185" height="35" as="geometry" />
        </mxCell>
        <mxCell id="pgzEsScPh1fTldkZnOe3-17" style="edgeStyle=orthogonalEdgeStyle;rounded=0;orthogonalLoop=1;jettySize=auto;html=1;exitX=0.5;exitY=1;exitDx=0;exitDy=0;entryX=0.5;entryY=0;entryDx=0;entryDy=0;" edge="1" parent="1" source="pgzEsScPh1fTldkZnOe3-18" target="pgzEsScPh1fTldkZnOe3-20">
          <mxGeometry relative="1" as="geometry" />
        </mxCell>
        <mxCell id="pgzEsScPh1fTldkZnOe3-18" value="&lt;p&gt;&lt;b&gt;DSBlock:c2&amp;nbsp;&lt;/b&gt;&lt;span style=&quot;background-color: transparent; color: light-dark(rgb(0, 0, 0), rgb(255, 255, 255));&quot;&gt;→&amp;nbsp;&lt;/span&gt;&lt;b style=&quot;background-color: transparent; color: light-dark(rgb(0, 0, 0), rgb(255, 255, 255));&quot;&gt;c2, Stride=1&lt;/b&gt;&lt;/p&gt;&lt;p&gt;&lt;b&gt;(residual)&lt;/b&gt;&lt;/p&gt;" style="rounded=1;whiteSpace=wrap;html=1;rotation=0;fillColor=#d5e8d4;strokeColor=#82b366;gradientColor=#97d077;" vertex="1" parent="1">
          <mxGeometry x="425" y="320" width="190" height="46" as="geometry" />
        </mxCell>
        <mxCell id="pgzEsScPh1fTldkZnOe3-19" style="edgeStyle=orthogonalEdgeStyle;rounded=0;orthogonalLoop=1;jettySize=auto;html=1;exitX=0.5;exitY=1;exitDx=0;exitDy=0;entryX=0.5;entryY=0;entryDx=0;entryDy=0;" edge="1" parent="1" source="pgzEsScPh1fTldkZnOe3-20" target="pgzEsScPh1fTldkZnOe3-22">
          <mxGeometry relative="1" as="geometry" />
        </mxCell>
        <mxCell id="pgzEsScPh1fTldkZnOe3-20" value="&lt;p&gt;&lt;b&gt;DSBlock:c2&amp;nbsp;&lt;/b&gt;&lt;span style=&quot;color: light-dark(rgb(0, 0, 0), rgb(255, 255, 255)); background-color: transparent;&quot;&gt;→&amp;nbsp;&lt;/span&gt;&lt;b style=&quot;color: light-dark(rgb(0, 0, 0), rgb(255, 255, 255)); background-color: transparent;&quot;&gt;c3, Stride=2&lt;/b&gt;&lt;/p&gt;" style="rounded=1;whiteSpace=wrap;html=1;rotation=0;fillColor=#d5e8d4;strokeColor=#82b366;gradientColor=#97d077;" vertex="1" parent="1">
          <mxGeometry x="425" y="380" width="185" height="35" as="geometry" />
        </mxCell>
        <mxCell id="pgzEsScPh1fTldkZnOe3-21" style="edgeStyle=orthogonalEdgeStyle;rounded=0;orthogonalLoop=1;jettySize=auto;html=1;exitX=0.5;exitY=1;exitDx=0;exitDy=0;entryX=0.5;entryY=0;entryDx=0;entryDy=0;" edge="1" parent="1" source="pgzEsScPh1fTldkZnOe3-22" target="pgzEsScPh1fTldkZnOe3-24">
          <mxGeometry relative="1" as="geometry" />
        </mxCell>
        <mxCell id="pgzEsScPh1fTldkZnOe3-22" value="&lt;p&gt;&lt;b&gt;DSBlock:c3&amp;nbsp;&lt;/b&gt;&lt;span style=&quot;background-color: transparent; color: light-dark(rgb(0, 0, 0), rgb(255, 255, 255));&quot;&gt;→&amp;nbsp;&lt;/span&gt;&lt;b style=&quot;background-color: transparent; color: light-dark(rgb(0, 0, 0), rgb(255, 255, 255));&quot;&gt;c3, Stride=1&lt;/b&gt;&lt;/p&gt;&lt;p&gt;&lt;b&gt;(residual)&lt;/b&gt;&lt;/p&gt;" style="rounded=1;whiteSpace=wrap;html=1;rotation=0;fillColor=#d5e8d4;strokeColor=#82b366;gradientColor=#97d077;" vertex="1" parent="1">
          <mxGeometry x="425" y="430" width="190" height="46" as="geometry" />
        </mxCell>
        <mxCell id="pgzEsScPh1fTldkZnOe3-23" style="edgeStyle=orthogonalEdgeStyle;rounded=0;orthogonalLoop=1;jettySize=auto;html=1;exitX=0.5;exitY=1;exitDx=0;exitDy=0;entryX=0.5;entryY=0;entryDx=0;entryDy=0;" edge="1" parent="1" source="pgzEsScPh1fTldkZnOe3-24" target="pgzEsScPh1fTldkZnOe3-25">
          <mxGeometry relative="1" as="geometry" />
        </mxCell>
        <mxCell id="pgzEsScPh1fTldkZnOe3-24" value="&lt;p&gt;&lt;b&gt;DSBlock:c3&amp;nbsp;&lt;/b&gt;&lt;span style=&quot;background-color: transparent; color: light-dark(rgb(0, 0, 0), rgb(255, 255, 255));&quot;&gt;→&amp;nbsp;&lt;/span&gt;&lt;b style=&quot;background-color: transparent; color: light-dark(rgb(0, 0, 0), rgb(255, 255, 255));&quot;&gt;c4, Stride=1&lt;/b&gt;&lt;/p&gt;&lt;p&gt;&lt;b&gt;(residual)&lt;/b&gt;&lt;/p&gt;" style="rounded=1;whiteSpace=wrap;html=1;rotation=0;fillColor=#d5e8d4;strokeColor=#82b366;gradientColor=#97d077;" vertex="1" parent="1">
          <mxGeometry x="425" y="490" width="190" height="46" as="geometry" />
        </mxCell>
        <mxCell id="pgzEsScPh1fTldkZnOe3-37" style="edgeStyle=orthogonalEdgeStyle;rounded=0;orthogonalLoop=1;jettySize=auto;html=1;exitX=1;exitY=0.5;exitDx=0;exitDy=0;" edge="1" parent="1" source="pgzEsScPh1fTldkZnOe3-25">
          <mxGeometry relative="1" as="geometry">
            <mxPoint x="640" y="573" as="targetPoint" />
          </mxGeometry>
        </mxCell>
        <mxCell id="pgzEsScPh1fTldkZnOe3-25" value="&lt;p&gt;&lt;b&gt;DSBlock:c4&amp;nbsp;&lt;/b&gt;&lt;span style=&quot;background-color: transparent; color: light-dark(rgb(0, 0, 0), rgb(255, 255, 255));&quot;&gt;→&amp;nbsp;&lt;/span&gt;&lt;b style=&quot;background-color: transparent; color: light-dark(rgb(0, 0, 0), rgb(255, 255, 255));&quot;&gt;c5, Stride=1&lt;/b&gt;&lt;/p&gt;&lt;p&gt;&lt;b&gt;(residual)&lt;/b&gt;&lt;/p&gt;" style="rounded=1;whiteSpace=wrap;html=1;rotation=0;fillColor=#d5e8d4;strokeColor=#82b366;gradientColor=#97d077;" vertex="1" parent="1">
          <mxGeometry x="425" y="550" width="190" height="46" as="geometry" />
        </mxCell>
        <mxCell id="pgzEsScPh1fTldkZnOe3-38" style="edgeStyle=orthogonalEdgeStyle;rounded=0;orthogonalLoop=1;jettySize=auto;html=1;exitX=0.5;exitY=1;exitDx=0;exitDy=0;entryX=0.5;entryY=0;entryDx=0;entryDy=0;" edge="1" parent="1" source="pgzEsScPh1fTldkZnOe3-27" target="pgzEsScPh1fTldkZnOe3-28">
          <mxGeometry relative="1" as="geometry" />
        </mxCell>
        <mxCell id="pgzEsScPh1fTldkZnOe3-27" value="&lt;p&gt;&lt;font face=&quot;Helvetica&quot; style=&quot;font-size: 13px;&quot;&gt;Global&amp;nbsp; Average Pool&lt;br&gt;1x1&lt;/font&gt;&lt;/p&gt;" style="rounded=0;whiteSpace=wrap;html=1;rotation=-90;fillColor=#d0cee2;strokeColor=#56517e;fontStyle=1" vertex="1" parent="1">
          <mxGeometry x="590" y="546" width="155" height="50" as="geometry" />
        </mxCell>
        <mxCell id="pgzEsScPh1fTldkZnOe3-39" style="edgeStyle=orthogonalEdgeStyle;rounded=0;orthogonalLoop=1;jettySize=auto;html=1;exitX=0.5;exitY=1;exitDx=0;exitDy=0;" edge="1" parent="1" source="pgzEsScPh1fTldkZnOe3-28">
          <mxGeometry relative="1" as="geometry">
            <mxPoint x="800" y="571" as="targetPoint" />
          </mxGeometry>
        </mxCell>
        <mxCell id="pgzEsScPh1fTldkZnOe3-28" value="&lt;p&gt;&lt;font style=&quot;font-size: 13px;&quot;&gt;Dropout,&amp;nbsp;&lt;span style=&quot;background-color: transparent; color: light-dark(rgb(0, 0, 0), rgb(255, 255, 255));&quot;&gt;p = 0.2&lt;/span&gt;&lt;/font&gt;&lt;/p&gt;" style="rounded=0;whiteSpace=wrap;html=1;rotation=-90;fillColor=#fad9d5;strokeColor=#ae4132;fontStyle=1" vertex="1" parent="1">
          <mxGeometry x="670" y="546" width="155" height="50" as="geometry" />
        </mxCell>
        <mxCell id="pgzEsScPh1fTldkZnOe3-40" style="edgeStyle=orthogonalEdgeStyle;rounded=0;orthogonalLoop=1;jettySize=auto;html=1;exitX=0.5;exitY=1;exitDx=0;exitDy=0;" edge="1" parent="1" source="pgzEsScPh1fTldkZnOe3-29">
          <mxGeometry relative="1" as="geometry">
            <mxPoint x="880" y="561" as="targetPoint" />
          </mxGeometry>
        </mxCell>
        <mxCell id="pgzEsScPh1fTldkZnOe3-29" value="&lt;p&gt;&lt;font style=&quot;font-size: 14px;&quot;&gt;Fully&amp;nbsp; Connected Layer&lt;/font&gt;&lt;/p&gt;&lt;p&gt;&lt;font style=&quot;font-size: 14px;&quot;&gt;c5&amp;nbsp;&lt;span style=&quot;font-weight: 400; background-color: transparent; color: light-dark(rgb(0, 0, 0), rgb(255, 255, 255));&quot;&gt;→ &lt;/span&gt;&lt;span style=&quot;background-color: transparent; color: light-dark(rgb(0, 0, 0), rgb(255, 255, 255));&quot;&gt;num_classes&lt;/span&gt;&lt;/font&gt;&lt;/p&gt;" style="rounded=0;whiteSpace=wrap;html=1;rotation=-90;fillColor=#f5f5f5;strokeColor=#666666;fontStyle=1;shadow=1;gradientColor=#b3b3b3;" vertex="1" parent="1">
          <mxGeometry x="720" y="536" width="222.5" height="50" as="geometry" />
        </mxCell>
        <mxCell id="pgzEsScPh1fTldkZnOe3-30" value="&lt;b&gt;Output&lt;/b&gt;" style="ellipse;whiteSpace=wrap;html=1;aspect=fixed;fillColor=#fff2cc;strokeColor=#d6b656;gradientColor=#ffd966;" vertex="1" parent="1">
          <mxGeometry x="880" y="516" width="80" height="80" as="geometry" />
        </mxCell>
        <mxCell id="pgzEsScPh1fTldkZnOe3-57" style="edgeStyle=orthogonalEdgeStyle;rounded=0;orthogonalLoop=1;jettySize=auto;html=1;exitX=0.5;exitY=1;exitDx=0;exitDy=0;entryX=0.364;entryY=0;entryDx=0;entryDy=0;entryPerimeter=0;" edge="1" parent="1">
          <mxGeometry relative="1" as="geometry">
            <mxPoint x="316.0000000000002" y="110" as="sourcePoint" />
            <mxPoint x="340" y="109.96000000000004" as="targetPoint" />
          </mxGeometry>
        </mxCell>
        <mxCell id="pgzEsScPh1fTldkZnOe3-60" style="edgeStyle=orthogonalEdgeStyle;rounded=0;orthogonalLoop=1;jettySize=auto;html=1;exitX=0.875;exitY=0.5;exitDx=0;exitDy=0;exitPerimeter=0;entryX=0.558;entryY=0;entryDx=0;entryDy=0;entryPerimeter=0;" edge="1" parent="1" source="pgzEsScPh1fTldkZnOe3-7" target="pgzEsScPh1fTldkZnOe3-2">
          <mxGeometry relative="1" as="geometry" />
        </mxCell>
      </root>
    </mxGraphModel>
  </diagram>
</mxfile>
